HIERARCHY
ROOT Hips
{
	OFFSET 0.000000 0.000000 0.000000 
	CHANNELS 6 Xposition Yposition Zposition Zrotation Yrotation Xrotation
	JOINT LeftUpLeg
	{
		OFFSET 1.363060 -1.794630 0.839290 
		CHANNELS 3 Zrotation Yrotation Xrotation
		JOINT LeftLeg
		{
			OFFSET 2.448110 -6.726130 0.000000 
			CHANNELS 3 Zrotation Yrotation Xrotation
			JOINT LeftFoot
			{
				OFFSET 2.562200 -7.039590 0.000000 
				CHANNELS 3 Zrotation Yrotation Xrotation
				JOINT LeftToeBase
				{
					OFFSET 0.157640 -0.433110 2.322550 
					CHANNELS 3 Zrotation Yrotation Xrotation
					End Site
					{
						OFFSET 0.000000 0.000000 0.000000 
					}
				}
			}
		}
	}
	JOINT RightUpLeg
	{
		OFFSET -1.305520 -1.794630 0.839290 
		CHANNELS 3 Zrotation Yrotation Xrotation
		JOINT RightLeg
		{
			OFFSET -2.542530 -6.985550 0.000000 
			CHANNELS 3 Zrotation Yrotation Xrotation
			JOINT RightFoot
			{
				OFFSET -2.568260 -7.056230 0.000000 
				CHANNELS 3 Zrotation Yrotation Xrotation
				JOINT RightToeBase
				{
					OFFSET -0.164730 -0.452590 2.363150 
					CHANNELS 3 Zrotation Yrotation Xrotation
					End Site
					{
						OFFSET 0.000000 0.000000 0.000000 
					}
				}
			}
		}
	}
	JOINT Spine
	{
		OFFSET 0.028270 2.035590 -0.193380 
		CHANNELS 3 Zrotation Yrotation Xrotation
		JOINT Spine1
		{
			OFFSET 0.056720 2.048850 -0.042750 
			CHANNELS 3 Zrotation Yrotation Xrotation
			JOINT Neck1
			{
				OFFSET -0.054170 1.746240 0.172020 
				CHANNELS 3 Zrotation Yrotation Xrotation
				JOINT Head
				{
					OFFSET 0.104070 1.761360 -0.123970 
					CHANNELS 3 Zrotation Yrotation Xrotation
					End Site
					{
						OFFSET 0.000000 0.000000 0.000000 
					}
				}
			}
			JOINT LeftArm
			{
				OFFSET 3.362410 1.200890 -0.311210 
				CHANNELS 3 Zrotation Yrotation Xrotation
				JOINT LeftForeArm
				{
					OFFSET 4.983000 -0.000000 -0.000000 
					CHANNELS 3 Zrotation Yrotation Xrotation
					JOINT LeftHand
					{
						OFFSET 3.483560 -0.000000 -0.000000 
						CHANNELS 3 Zrotation Yrotation Xrotation
						JOINT LeftHandIndex1
						{
							OFFSET 0.715260 -0.000000 -0.000000 
							CHANNELS 3 Zrotation Yrotation Xrotation
							End Site
							{
								OFFSET 0.000000 0.000000 0.000000 
							}
						}
					}
				}
			}
			JOINT RightArm
			{
				OFFSET -3.136600 1.374050 -0.404650 
				CHANNELS 3 Zrotation Yrotation Xrotation
				JOINT RightForeArm
				{
					OFFSET -5.241900 -0.000000 -0.000000 
					CHANNELS 3 Zrotation Yrotation Xrotation
					JOINT RightHand
					{
						OFFSET -3.444170 -0.000000 -0.000000 
						CHANNELS 3 Zrotation Yrotation Xrotation
						JOINT RightHandIndex1
						{
							OFFSET -0.622530 -0.000000 -0.000000 
							CHANNELS 3 Zrotation Yrotation Xrotation
							End Site
							{
								OFFSET 0.000000 0.000000 0.000000 
							}
						}
					}
				}
			}
		}
	}
}
MOTION
Frames: 10
Frame Time: 0.041667
-0.485185 18.321801 5.662710 -2.232015 -2.535500 1.580525 -14.456239 -10.628663 -3.250546 0.744279 6.580757 22.096137 -1.006598 9.105931 -17.200100 7.860600 -16.015800 -52.059100 3.401179 1.755385 -1.768402 -0.014417 0.549415 1.336507 0.242191 -0.980232 5.493083 0.000000 0.000000 0.000000 8.124665 1.867826 16.813276 -1.646186 1.951877 -15.123453 1.118554 -3.782900 47.278306 0.284000 -1.637000 15.340300 -80.085613 8.021375 57.699964 126.244403 -50.986318 -90.774664 -0.885350 0.618994 -31.159701 -7.125000 0.000000 0.000000 66.622402 17.106875 11.194846 -83.763182 57.220574 -46.564883 1.054924 0.301395 -71.897134 7.125000 0.000000 0.000000 
-0.483911 18.321115 5.661730 -2.190483 -2.554325 1.556683 -14.495036 -10.644041 -3.230136 0.745164 6.579209 22.098372 -1.000065 9.089203 -17.224647 7.849500 -16.007500 -52.018900 3.396537 1.756023 -1.763755 -0.014043 0.551745 1.337087 0.242890 -0.977952 5.493829 0.000000 0.000000 0.000000 8.007985 1.895710 16.959214 -1.577622 1.977880 -15.138192 1.054687 -3.747650 47.260280 0.270800 -1.632900 15.336700 -80.089943 8.083300 57.662385 126.351622 -50.949495 -90.870385 -0.889328 0.616306 -31.197109 -7.125000 0.000000 0.000000 66.094295 17.041349 10.087610 -83.040161 57.289066 -45.967414 1.057384 0.282042 -71.139316 7.125000 0.000000 0.000000 
-0.482147 18.321115 5.660751 -2.176664 -2.557197 1.527876 -14.512479 -10.652886 -3.220451 0.745497 6.574372 22.095057 -0.999116 9.088469 -17.238202 7.857200 -16.013200 -52.046700 3.391033 1.756788 -1.756471 -0.013773 0.555220 1.337754 0.243749 -0.974797 5.495360 0.000000 0.000000 0.000000 7.958343 1.895980 17.205818 -1.479543 1.994629 -15.166327 0.847178 -3.640698 47.207914 0.230100 -1.626500 15.331000 -80.171809 8.095168 57.597113 126.460389 -50.915304 -90.968623 -0.893668 0.612245 -31.162836 -7.125000 0.000000 0.000000 64.579713 17.837639 9.165529 -80.201302 57.521231 -43.458728 1.143868 0.242689 -71.772978 7.125000 0.000000 0.000000 
-0.480874 18.321801 5.659869 -2.213487 -2.539152 1.524656 -14.497126 -10.652100 -3.230344 0.746699 6.572139 22.097684 -0.999529 9.087456 -17.236036 7.867400 -16.020800 -52.083500 3.393708 1.755872 -1.756761 -0.014110 0.554428 1.337091 0.243365 -0.975959 5.495685 0.000000 0.000000 0.000000 8.159535 1.887811 17.262013 -1.450164 2.004246 -15.151755 0.537901 -3.513953 47.123873 0.148400 -1.622400 15.288400 -80.303541 8.085854 57.492188 126.532432 -50.893574 -91.035287 -0.896440 0.608290 -31.066397 -7.125000 0.000000 0.000000 63.525347 18.274238 8.202233 -78.341791 57.609344 -41.819656 1.220582 0.168594 -72.175453 7.125000 0.000000 0.000000 
-0.479600 18.322192 5.658203 -2.240566 -2.516374 1.545874 -14.488146 -10.654857 -3.252621 0.748507 6.575401 22.107060 -0.991615 9.057354 -17.238904 7.872400 -16.024600 -52.101800 3.398621 1.754321 -1.761477 -0.014345 0.551407 1.336013 0.242366 -0.979033 5.494742 0.000000 0.000000 0.000000 8.301177 1.909490 17.125265 -1.429290 2.015398 -15.135987 0.282736 -3.418033 47.098775 0.072500 -1.617500 15.249800 -80.372961 8.125348 57.421099 126.606556 -50.872185 -91.106904 -0.898512 0.604438 -31.039602 -7.125000 0.000000 0.000000 62.717268 18.518891 7.189331 -76.827350 57.645016 -40.526938 1.275881 0.105194 -72.000020 7.125000 0.000000 0.000000 
-0.477445 18.321409 5.656048 -2.222756 -2.489120 1.557216 -14.502152 -10.645117 -3.279421 0.752528 6.584112 22.126003 -0.982060 9.013349 -17.218240 7.887300 -16.035700 -52.155700 3.398358 1.753896 -1.763096 -0.014044 0.550460 1.335845 0.242043 -0.979743 5.493940 0.000000 0.000000 0.000000 8.196581 1.955997 17.010632 -1.387053 2.029688 -15.154273 0.229983 -3.395328 47.140263 0.060700 -1.616800 15.242900 -80.382395 8.198116 57.388017 126.667777 -50.854250 -91.167098 -0.897705 0.602430 -31.098073 -7.125000 0.000000 0.000000 61.974630 18.775320 6.130198 -75.218072 57.644539 -39.189729 1.321761 0.071472 -71.504030 7.125000 0.000000 0.000000 
-0.475289 18.320919 5.654284 -2.194203 -2.477086 1.557207 -14.515478 -10.639157 -3.320591 0.761132 6.604827 22.179652 -0.984839 9.015761 -17.190362 7.907100 -16.050500 -52.227500 3.394221 1.754479 -1.761165 -0.013499 0.551680 1.336432 0.242392 -0.978234 5.493757 0.000000 0.000000 0.000000 7.982136 2.013976 16.983889 -1.342000 2.048780 -15.181151 0.305893 -3.426655 47.205663 0.089200 -1.623800 15.257600 -80.391273 8.257094 57.339466 126.691793 -50.848324 -91.191892 -0.896889 0.602016 -31.130252 -7.125000 0.000000 0.000000 61.284091 19.065634 5.010974 -73.561920 57.602948 -37.839537 1.365544 0.018267 -70.962474 7.125000 0.000000 0.000000 
-0.465785 18.323270 5.648307 -2.154900 -2.607778 1.674435 -14.577666 -10.755194 -3.413854 0.759465 6.633553 22.233247 -1.006299 9.160523 -17.342214 7.882100 -16.031800 -52.136800 3.391125 1.754921 -1.764045 -0.012696 0.550913 1.337003 0.242248 -0.978134 5.492003 0.000000 0.000000 0.000000 7.620407 2.177120 16.689834 -1.321767 2.090985 -15.156344 0.295173 -3.421400 47.359078 0.087400 -1.622700 15.291900 -80.396311 8.309701 57.285199 126.707393 -50.848872 -91.212566 -0.897753 0.601291 -31.118904 -7.125000 0.000000 0.000000 60.551592 19.307094 3.946685 -72.006569 57.530169 -36.574828 1.407314 -0.050230 -70.663719 7.125000 0.000000 0.000000 
-0.440507 18.327679 5.632925 -2.064055 -2.963707 1.981626 -14.737360 -11.014739 -3.627369 0.741988 6.675299 22.279952 -1.054519 9.500472 -17.721811 7.813900 -15.980700 -51.889600 3.386240 1.755993 -1.773783 -0.011054 0.547993 1.338185 0.241682 -0.978931 5.487486 0.000000 0.000000 0.000000 6.825305 2.522542 15.939418 -1.339123 2.166817 -15.072830 0.192360 -3.385704 47.609709 0.045700 -1.611500 15.329400 -80.336611 8.389985 57.269225 126.734903 -50.849181 -91.248862 -0.898638 0.600329 -31.112764 -7.125000 0.000000 0.000000 59.994550 19.333310 2.824219 -70.901260 57.465890 -35.669073 1.439778 -0.110096 -70.254409 7.125000 0.000000 0.000000 
-0.439429 18.327189 5.632827 -2.055317 -2.926380 1.950110 -14.718110 -10.878042 -3.715079 0.758906 6.693784 22.340474 -1.030638 9.360995 -17.596746 7.823900 -15.988200 -51.926000 3.382256 1.756826 -1.769280 -0.010848 0.550421 1.338838 0.242407 -0.976595 5.488406 0.000000 0.000000 0.000000 6.781112 2.552279 16.091628 -1.321407 2.188561 -15.104437 0.089453 -3.338815 47.672553 0.016500 -1.605800 15.370200 -80.292979 8.447683 57.242961 126.771018 -50.835589 -91.280679 -0.900107 0.599708 -31.136274 -7.125000 0.000000 0.000000 59.695857 19.251718 1.636619 -70.188199 57.400363 -35.093534 1.464490 -0.167316 -69.634698 7.125000 0.000000 0.000000 
